General
Complete name                    : I Taket Lyser Stjärnorna.mkv
Format                           : Matroska
File size                        : 1.38 GiB
Duration                         : 1h 25mn
Overall bit rate                 : 2 299 Kbps


Video
ID                               : 1
Format                           : AVC
Duration                         : 1h 25mn
Bit rate                         : 1 805 Kbps
Width                            : 710 pixels
Height                           : 552 pixels
Display aspect ratio             : 16:9
Original display aspect ratio    : 16:9
Frame rate                       : 25.000 fps
Resolution                       : 8 bits
Colorimetry                      : 4:2:0
Scan type                        : Progressive
Bits/(Pixel*Frame)               : 0.184
Stream size                      : 1.08 GiB (79%)
Writing library                  : x264 core 79

Audio
ID                               : 2
Format                           : AC-3
Format/Info                      : Audio Coding 3
Codec ID                         : A_AC3
Duration                         : 1h 25mn
Bit rate mode                    : Constant
Bit rate                         : 448 Kbps
Channel(s)                       : 6 channels
Channel positions                : Front: L C R, Surround: L R, LFE
Sampling rate                    : 48.0 KHz
Stream size                      : 275 MiB (19%)
Language                         : Swedish

Text #1
Language                         : Swedish

Text #2
Language                         : Norwegian

Text #3
Language                         : Danish

Text #4
Language                         : English

